<?xml version="1.0" encoding="UTF-8" standalone="no"?>
<!DOCTYPE svg PUBLIC "-//W3C//DTD SVG 1.1//EN" "http://www.w3.org/Graphics/SVG/1.1/DTD/svg11.dtd">
<svg width="100%" height="100%" viewBox="0 0 1000 1000" version="1.1" xmlns="http://www.w3.org/2000/svg" xmlns:xlink="http://www.w3.org/1999/xlink" xml:space="preserve" xmlns:serif="http://www.serif.com/" style="fill-rule:evenodd;clip-rule:evenodd;stroke-linejoin:round;stroke-miterlimit:2;">
    <g transform="matrix(2.228111,0,0,2.228111,24.007635,-2122.995208)">
        <path d="M409.843,1079.122L409.843,1275.334C409.843,1329.481 365.883,1373.441 311.737,1373.441L115.524,1373.441C61.378,1373.441 17.418,1329.481 17.418,1275.334L17.418,1079.122C17.418,1024.975 61.378,981.016 115.524,981.016L311.737,981.016C365.883,981.016 409.843,1024.975 409.843,1079.122ZM203.538,1011.492L166.019,1117.535C165.033,1120.322 163.437,1122.854 161.346,1124.944C159.256,1127.034 156.725,1128.631 153.938,1129.617L47.894,1167.135C43.618,1168.648 40.759,1172.692 40.759,1177.228C40.759,1181.764 43.618,1185.808 47.894,1187.321L153.938,1224.839C156.725,1225.825 159.256,1227.422 161.346,1229.512C163.437,1231.603 165.033,1234.134 166.019,1236.921L203.538,1342.965C205.051,1347.241 209.094,1350.099 213.63,1350.099C218.166,1350.099 222.21,1347.241 223.723,1342.965L261.242,1236.921C262.228,1234.134 263.824,1231.603 265.915,1229.512C268.005,1227.422 270.536,1225.825 273.323,1224.839L379.367,1187.321C383.643,1185.808 386.502,1181.764 386.502,1177.228C386.502,1172.692 383.643,1168.648 379.367,1167.135L273.323,1129.617C270.536,1128.631 268.005,1127.034 265.915,1124.944C263.824,1122.854 262.228,1120.322 261.242,1117.535L223.723,1011.492C222.21,1007.215 218.166,1004.357 213.63,1004.357C209.094,1004.357 205.051,1007.215 203.538,1011.492Z" style="fill:rgb(35,31,32);"/>
    </g>
</svg>
