<?xml version="1.0" encoding="UTF-8" standalone="no"?>
<!DOCTYPE svg PUBLIC "-//W3C//DTD SVG 1.1//EN" "http://www.w3.org/Graphics/SVG/1.1/DTD/svg11.dtd">
<svg width="100%" height="100%" viewBox="0 0 2196 412" version="1.1" xmlns="http://www.w3.org/2000/svg" xmlns:xlink="http://www.w3.org/1999/xlink" xml:space="preserve" xmlns:serif="http://www.serif.com/" style="fill-rule:evenodd;clip-rule:evenodd;stroke-linejoin:round;stroke-miterlimit:2;">
    <g id="Mesa-de-trabajo1" serif:id="Mesa de trabajo1" transform="matrix(1,0,0,1,-145.077047,-441.200449)">
        <rect x="145.077" y="441.2" width="2195.419" height="411.216" style="fill:none;"/>
        <g transform="matrix(1,0,0,1,0.077047,0.200449)">
            <g transform="matrix(4.570304,0,0,4.570304,-2497.719066,-4332.829575)">
                <g transform="matrix(50,0,0,50,846.05177,1108.75582)">
                </g>
                <text x="679.938px" y="1108.756px" style="font-family:'KronaOne-Regular', 'Krona One';font-size:50px;fill:rgb(35,31,32);">t<tspan x="702.39px 741.296px 755.471px 790.471px 804.646px " y="1108.756px 1108.756px 1108.756px 1108.756px 1108.756px ">olklo</tspan></text>
            </g>
            <g transform="matrix(0.888537,0,0,0.888537,158.202769,-402.872708)">
                <path d="M409.843,1079.122L409.843,1275.334C409.843,1329.481 365.883,1373.441 311.737,1373.441L115.524,1373.441C61.378,1373.441 17.418,1329.481 17.418,1275.334L17.418,1079.122C17.418,1024.975 61.378,981.016 115.524,981.016L311.737,981.016C365.883,981.016 409.843,1024.975 409.843,1079.122ZM203.538,1011.492L166.019,1117.535C165.033,1120.322 163.437,1122.854 161.346,1124.944C159.256,1127.034 156.725,1128.631 153.938,1129.617L47.894,1167.135C43.618,1168.648 40.759,1172.692 40.759,1177.228C40.759,1181.764 43.618,1185.808 47.894,1187.321L153.938,1224.839C156.725,1225.825 159.256,1227.422 161.346,1229.512C163.437,1231.603 165.033,1234.134 166.019,1236.921L203.538,1342.965C205.051,1347.241 209.094,1350.099 213.63,1350.099C218.166,1350.099 222.21,1347.241 223.723,1342.965L261.242,1236.921C262.228,1234.134 263.824,1231.603 265.915,1229.512C268.005,1227.422 270.536,1225.825 273.323,1224.839L379.367,1187.321C383.643,1185.808 386.502,1181.764 386.502,1177.228C386.502,1172.692 383.643,1168.648 379.367,1167.135L273.323,1129.617C270.536,1128.631 268.005,1127.034 265.915,1124.944C263.824,1122.854 262.228,1120.322 261.242,1117.535L223.723,1011.492C222.21,1007.215 218.166,1004.357 213.63,1004.357C209.094,1004.357 205.051,1007.215 203.538,1011.492Z" style="fill:rgb(35,31,32);"/>
            </g>
            <g transform="matrix(4.499387,0,0,4.499387,-1622.514413,-4260.514046)">
                <g transform="matrix(50,0,0,50,874.388489,1108.75582)">
                </g>
                <text x="679.938px" y="1108.756px" style="font-family:'GoogleSansFlex-Light', 'Google Sans Flex', sans-serif;font-weight:300;font-size:50px;fill:rgb(35,31,32);">o<tspan x="707.088px 721.613px 748.738px 772.713px 797.913px 806.063px 830.613px 856.088px " y="1108.756px 1108.756px 1108.756px 1108.756px 1108.756px 1108.756px 1108.756px 1108.756px ">rganicer</tspan></text>
            </g>
            <g transform="matrix(0.37167,0,0,0.37167,1118.298728,264.521503)">
                <path d="M705.228,705.392C706.456,701.922 709.737,699.602 713.418,699.602C717.099,699.602 720.381,701.922 721.609,705.392L752.056,791.45C752.856,793.711 754.152,795.765 755.848,797.462C757.545,799.158 759.599,800.454 761.86,801.254L847.917,831.701C851.388,832.929 853.708,836.211 853.708,839.892C853.708,843.573 851.388,846.854 847.917,848.082L761.86,878.529C759.599,879.33 757.545,880.625 755.848,882.322C754.152,884.018 752.856,886.072 752.056,888.334L721.609,974.391C720.381,977.861 717.099,980.181 713.418,980.181C709.737,980.181 706.456,977.861 705.228,974.391L674.781,888.334C673.98,886.072 672.685,884.018 670.988,882.322C669.292,880.625 667.238,879.33 664.976,878.529L578.919,848.082C575.449,846.854 573.129,843.573 573.129,839.892C573.129,836.211 575.449,832.929 578.919,831.701L664.976,801.254C667.238,800.454 669.292,799.158 670.988,797.462C672.685,795.765 673.98,793.711 674.781,791.45L705.228,705.392Z" style="fill:rgb(35,31,32);"/>
            </g>
        </g>
    </g>
</svg>
