<?xml version="1.0" encoding="UTF-8" standalone="no"?>
<!DOCTYPE svg PUBLIC "-//W3C//DTD SVG 1.1//EN" "http://www.w3.org/Graphics/SVG/1.1/DTD/svg11.dtd">
<svg width="100%" height="100%" viewBox="0 0 2196 412" version="1.1" xmlns="http://www.w3.org/2000/svg" xmlns:xlink="http://www.w3.org/1999/xlink" xml:space="preserve" xmlns:serif="http://www.serif.com/" style="fill-rule:evenodd;clip-rule:evenodd;stroke-linejoin:round;stroke-miterlimit:2;">
    <g id="Mesa-de-trabajo1" serif:id="Mesa de trabajo1" transform="matrix(1,0,0,1,-145.077047,-441.200449)">
        <rect x="145.077" y="441.2" width="2195.419" height="411.216" style="fill:none;"/>
        <g transform="matrix(1,0,0,1,0.077047,0.200449)">
            <g transform="matrix(4.570304,0,0,4.570304,-2497.719066,-4332.829575)">
                <g transform="matrix(1,0,0,1,679.938,1108.756)">
                    <path d="M8.862,-23.389L1.904,-23.389L1.904,-28.809L8.862,-28.809L8.862,-37.769L16.089,-37.769L16.089,-28.809L23.047,-28.809L23.047,-23.389L16.089,-23.389L16.089,0L8.862,0L8.862,-23.389Z" style="fill:rgb(35,31,32);fill-rule:nonzero;"/>
                </g>
                <g transform="matrix(1,0,0,1,702.39,1108.756)">
                    <path d="M2.783,-14.404C2.783,-16.471 3.202,-18.408 4.041,-20.215C4.879,-22.021 6.075,-23.6 7.629,-24.951C9.184,-26.302 11.064,-27.368 13.269,-28.149C15.474,-28.931 17.952,-29.321 20.703,-29.321C23.454,-29.321 25.932,-28.931 28.137,-28.149C30.343,-27.368 32.222,-26.302 33.777,-24.951C35.331,-23.6 36.528,-22.021 37.366,-20.215C38.204,-18.408 38.623,-16.471 38.623,-14.404C38.623,-12.337 38.204,-10.4 37.366,-8.594C36.528,-6.787 35.331,-5.208 33.777,-3.857C32.222,-2.507 30.343,-1.44 28.137,-0.659C25.932,0.122 23.454,0.513 20.703,0.513C17.952,0.513 15.474,0.122 13.269,-0.659C11.064,-1.44 9.184,-2.507 7.629,-3.857C6.075,-5.208 4.879,-6.787 4.041,-8.594C3.202,-10.4 2.783,-12.337 2.783,-14.404ZM10.376,-14.404C10.376,-13.249 10.608,-12.154 11.072,-11.121C11.536,-10.087 12.211,-9.176 13.098,-8.386C13.985,-7.597 15.068,-6.97 16.345,-6.506C17.623,-6.042 19.076,-5.811 20.703,-5.811C22.331,-5.811 23.783,-6.042 25.061,-6.506C26.339,-6.97 27.421,-7.597 28.308,-8.386C29.195,-9.176 29.871,-10.087 30.334,-11.121C30.798,-12.154 31.03,-13.249 31.03,-14.404C31.03,-15.56 30.798,-16.659 30.334,-17.7C29.871,-18.742 29.195,-19.657 28.308,-20.447C27.421,-21.236 26.339,-21.863 25.061,-22.327C23.783,-22.791 22.331,-23.022 20.703,-23.022C19.076,-23.022 17.623,-22.791 16.345,-22.327C15.068,-21.863 13.985,-21.236 13.098,-20.447C12.211,-19.657 11.536,-18.742 11.072,-17.7C10.608,-16.659 10.376,-15.56 10.376,-14.404Z" style="fill:rgb(35,31,32);fill-rule:nonzero;"/>
                    <rect x="43.618" y="-40.503" width="7.227" height="40.503" style="fill:rgb(35,31,32);fill-rule:nonzero;"/>
                    <path d="M57.622,-40.503L64.849,-40.503L64.849,-16.577L78.325,-28.809L89.385,-28.809L74.321,-15.332L90.337,0L79.497,0L68.779,-10.376L64.849,-6.86L64.849,0L57.622,0L57.622,-40.503Z" style="fill:rgb(35,31,32);fill-rule:nonzero;"/>
                    <rect x="92.793" y="-40.503" width="7.227" height="40.503" style="fill:rgb(35,31,32);fill-rule:nonzero;"/>
                    <path d="M105.039,-14.404C105.039,-16.471 105.458,-18.408 106.297,-20.215C107.135,-22.021 108.331,-23.6 109.885,-24.951C111.44,-26.302 113.32,-27.368 115.525,-28.149C117.73,-28.931 120.208,-29.321 122.959,-29.321C125.71,-29.321 128.188,-28.931 130.393,-28.149C132.599,-27.368 134.478,-26.302 136.033,-24.951C137.587,-23.6 138.784,-22.021 139.622,-20.215C140.46,-18.408 140.879,-16.471 140.879,-14.404C140.879,-12.337 140.46,-10.4 139.622,-8.594C138.784,-6.787 137.587,-5.208 136.033,-3.857C134.478,-2.507 132.599,-1.44 130.393,-0.659C128.188,0.122 125.71,0.513 122.959,0.513C120.208,0.513 117.73,0.122 115.525,-0.659C113.32,-1.44 111.44,-2.507 109.885,-3.857C108.331,-5.208 107.135,-6.787 106.297,-8.594C105.458,-10.4 105.039,-12.337 105.039,-14.404ZM112.632,-14.404C112.632,-13.249 112.864,-12.154 113.328,-11.121C113.792,-10.087 114.467,-9.176 115.354,-8.386C116.241,-7.597 117.324,-6.97 118.601,-6.506C119.879,-6.042 121.332,-5.811 122.959,-5.811C124.587,-5.811 126.039,-6.042 127.317,-6.506C128.595,-6.97 129.677,-7.597 130.564,-8.386C131.451,-9.176 132.127,-10.087 132.59,-11.121C133.054,-12.154 133.286,-13.249 133.286,-14.404C133.286,-15.56 133.054,-16.659 132.59,-17.7C132.127,-18.742 131.451,-19.657 130.564,-20.447C129.677,-21.236 128.595,-21.863 127.317,-22.327C126.039,-22.791 124.587,-23.022 122.959,-23.022C121.332,-23.022 119.879,-22.791 118.601,-22.327C117.324,-21.863 116.241,-21.236 115.354,-20.447C114.467,-19.657 113.792,-18.742 113.328,-17.7C112.864,-16.659 112.632,-15.56 112.632,-14.404Z" style="fill:rgb(35,31,32);fill-rule:nonzero;"/>
                </g>
            </g>
            <g transform="matrix(0.888537,0,0,0.888537,158.202769,-402.872708)">
                <path d="M409.843,1079.122L409.843,1275.334C409.843,1329.481 365.883,1373.441 311.737,1373.441L115.524,1373.441C61.378,1373.441 17.418,1329.481 17.418,1275.334L17.418,1079.122C17.418,1024.975 61.378,981.016 115.524,981.016L311.737,981.016C365.883,981.016 409.843,1024.975 409.843,1079.122ZM203.538,1011.492L166.019,1117.535C165.033,1120.322 163.437,1122.854 161.346,1124.944C159.256,1127.034 156.725,1128.631 153.938,1129.617L47.894,1167.135C43.618,1168.648 40.759,1172.692 40.759,1177.228C40.759,1181.764 43.618,1185.808 47.894,1187.321L153.938,1224.839C156.725,1225.825 159.256,1227.422 161.346,1229.512C163.437,1231.603 165.033,1234.134 166.019,1236.921L203.538,1342.965C205.051,1347.241 209.094,1350.099 213.63,1350.099C218.166,1350.099 222.21,1347.241 223.723,1342.965L261.242,1236.921C262.228,1234.134 263.824,1231.603 265.915,1229.512C268.005,1227.422 270.536,1225.825 273.323,1224.839L379.367,1187.321C383.643,1185.808 386.502,1181.764 386.502,1177.228C386.502,1172.692 383.643,1168.648 379.367,1167.135L273.323,1129.617C270.536,1128.631 268.005,1127.034 265.915,1124.944C263.824,1122.854 262.228,1120.322 261.242,1117.535L223.723,1011.492C222.21,1007.215 218.166,1004.357 213.63,1004.357C209.094,1004.357 205.051,1007.215 203.538,1011.492Z" style="fill:rgb(35,31,32);"/>
            </g>
            <g transform="matrix(0.37167,0,0,0.37167,1118.298728,264.521503)">
                <path d="M705.228,705.392C706.456,701.922 709.737,699.602 713.418,699.602C717.099,699.602 720.381,701.922 721.609,705.392L752.056,791.45C752.856,793.711 754.152,795.765 755.848,797.462C757.545,799.158 759.599,800.454 761.86,801.254L847.917,831.701C851.388,832.929 853.708,836.211 853.708,839.892C853.708,843.573 851.388,846.854 847.917,848.082L761.86,878.529C759.599,879.33 757.545,880.625 755.848,882.322C754.152,884.018 752.856,886.072 752.056,888.334L721.609,974.391C720.381,977.861 717.099,980.181 713.418,980.181C709.737,980.181 706.456,977.861 705.228,974.391L674.781,888.334C673.98,886.072 672.685,884.018 670.988,882.322C669.292,880.625 667.238,879.33 664.976,878.529L578.919,848.082C575.449,846.854 573.129,843.573 573.129,839.892C573.129,836.211 575.449,832.929 578.919,831.701L664.976,801.254C667.238,800.454 669.292,799.158 670.988,797.462C672.685,795.765 673.98,793.711 674.781,791.45L705.228,705.392Z" style="fill:rgb(35,31,32);"/>
            </g>
        </g>
        <g transform="matrix(4.499387,0,0,4.499387,-1622.437366,-4260.313597)">
            <g transform="matrix(1,0,0,1,679.938,1108.756)">
                <path d="M14.825,0.775C11.075,0.775 7.992,-0.496 5.575,-3.038C3.158,-5.579 1.95,-8.8 1.95,-12.7C1.95,-16.65 3.175,-19.879 5.625,-22.388C8.075,-24.896 11.142,-26.15 14.825,-26.15C18.508,-26.15 21.571,-24.879 24.012,-22.338C26.454,-19.796 27.675,-16.583 27.675,-12.7C27.675,-8.817 26.475,-5.6 24.075,-3.05C21.675,-0.5 18.592,0.775 14.825,0.775ZM14.825,-2.275C17.542,-2.275 19.8,-3.242 21.6,-5.175C23.4,-7.108 24.3,-9.617 24.3,-12.7C24.3,-15.8 23.387,-18.304 21.562,-20.212C19.738,-22.121 17.492,-23.075 14.825,-23.075C12.125,-23.075 9.867,-22.125 8.05,-20.225C6.233,-18.325 5.325,-15.817 5.325,-12.7C5.325,-9.6 6.225,-7.088 8.025,-5.163C9.825,-3.238 12.092,-2.275 14.825,-2.275Z" style="fill:rgb(35,31,32);fill-rule:nonzero;"/>
            </g>
            <g transform="matrix(1,0,0,1,707.088,1108.756)">
                <path d="M3.35,0L3.35,-25.35L6.575,-25.35L6.575,-20.5L6,-20.95L6.7,-20.95C7.183,-22.5 8.133,-23.754 9.55,-24.713C10.967,-25.671 12.458,-26.15 14.025,-26.15C14.508,-26.15 14.983,-26.113 15.45,-26.038C15.917,-25.962 16.321,-25.875 16.662,-25.775C17.004,-25.675 17.175,-25.625 17.175,-25.625L17.175,-22.05C17.175,-22.05 16.942,-22.121 16.475,-22.263C16.008,-22.404 15.525,-22.513 15.025,-22.587C14.525,-22.662 14.083,-22.7 13.7,-22.7C11.767,-22.7 10.121,-21.954 8.763,-20.462C7.404,-18.971 6.725,-17.05 6.725,-14.7L6.725,0L3.35,0Z" style="fill:rgb(35,31,32);fill-rule:nonzero;"/>
            </g>
            <g transform="matrix(1,0,0,1,707.088,1108.756)">
                <path d="M28.825,11.575C27.192,11.575 25.713,11.346 24.388,10.887C23.063,10.429 21.892,9.771 20.875,8.912C19.858,8.054 19.083,7.125 18.55,6.125C18.017,5.125 17.75,4.625 17.75,4.625L20.725,3.125C20.725,3.125 20.958,3.533 21.425,4.35C21.892,5.167 22.483,5.896 23.2,6.538C23.917,7.179 24.75,7.671 25.7,8.012C26.65,8.354 27.692,8.525 28.825,8.525C31.625,8.525 33.758,7.713 35.225,6.087C36.692,4.462 37.425,2.142 37.425,-0.875L37.425,-4.875L37.3,-4.875C36.55,-3.308 35.379,-2.013 33.788,-0.988C32.196,0.037 30.35,0.55 28.25,0.55C24.85,0.55 22.038,-0.662 19.813,-3.087C17.588,-5.513 16.475,-8.767 16.475,-12.85C16.475,-16.883 17.604,-20.108 19.863,-22.525C22.121,-24.942 24.925,-26.15 28.275,-26.15C30.358,-26.15 32.221,-25.638 33.863,-24.613C35.504,-23.588 36.708,-22.275 37.475,-20.675L38.4,-20.675L37.6,-19.625L37.6,-25.35L40.8,-25.35L40.8,-0.875C40.8,3.092 39.742,6.158 37.625,8.325C35.508,10.492 32.575,11.575 28.825,11.575ZM28.7,-2.5C31.283,-2.5 33.413,-3.45 35.088,-5.35C36.763,-7.25 37.6,-9.775 37.6,-12.925C37.6,-16.042 36.767,-18.512 35.1,-20.337C33.433,-22.162 31.308,-23.075 28.725,-23.075C26.175,-23.075 24.054,-22.171 22.363,-20.363C20.671,-18.554 19.825,-16.05 19.825,-12.85C19.825,-9.533 20.663,-6.979 22.338,-5.188C24.013,-3.396 26.133,-2.5 28.7,-2.5Z" style="fill:rgb(35,31,32);fill-rule:nonzero;"/>
            </g>
            <g transform="matrix(1,0,0,1,707.088,1108.756)">
                <path d="M52.875,0.775C50.125,0.775 47.879,-0.004 46.138,-1.562C44.396,-3.121 43.525,-5.158 43.525,-7.675C43.525,-10.275 44.504,-12.333 46.463,-13.85C48.421,-15.367 50.942,-16.125 54.025,-16.125C55.558,-16.125 57.038,-15.933 58.463,-15.55C59.888,-15.167 60.992,-14.683 61.775,-14.1L61.775,-16.35C61.775,-18.4 61.083,-20.042 59.7,-21.275C58.317,-22.508 56.558,-23.125 54.425,-23.125C53.158,-23.125 52.096,-22.95 51.238,-22.6C50.379,-22.25 49.683,-21.858 49.15,-21.425C48.617,-20.992 48.138,-20.538 47.713,-20.062C47.288,-19.588 47.075,-19.35 47.075,-19.35L44.5,-21.225C44.5,-21.225 44.775,-21.538 45.325,-22.163C45.875,-22.788 46.542,-23.4 47.325,-24C48.108,-24.6 49.046,-25.108 50.138,-25.525C51.229,-25.942 52.658,-26.15 54.425,-26.15C57.642,-26.15 60.208,-25.279 62.125,-23.538C64.042,-21.796 65,-19.392 65,-16.325L65,0L61.775,0L61.775,-6.525L63,-4.475L61.65,-4.475C60.933,-2.958 59.783,-1.704 58.2,-0.713C56.617,0.279 54.842,0.775 52.875,0.775ZM53.2,-2.225C55.6,-2.225 57.629,-3.067 59.288,-4.75C60.946,-6.433 61.775,-8.525 61.775,-11.025L61.775,-11.15C60.958,-11.867 59.896,-12.417 58.588,-12.8C57.279,-13.183 55.925,-13.375 54.525,-13.375C52.225,-13.375 50.392,-12.892 49.025,-11.925C47.658,-10.958 46.975,-9.525 46.975,-7.625C46.975,-6.008 47.563,-4.704 48.738,-3.712C49.913,-2.721 51.4,-2.225 53.2,-2.225Z" style="fill:rgb(35,31,32);fill-rule:nonzero;"/>
            </g>
            <g transform="matrix(1,0,0,1,707.088,1108.756)">
                <path d="M68.975,0L68.975,-25.35L72.2,-25.35L72.2,-20.1L71.625,-20.725L72.325,-20.725C72.975,-22.325 74.1,-23.629 75.7,-24.638C77.3,-25.646 79.067,-26.15 81,-26.15C83.95,-26.15 86.225,-25.288 87.825,-23.562C89.425,-21.837 90.225,-19.425 90.225,-16.325L90.225,0L86.85,0L86.85,-15.825C86.85,-18.225 86.283,-20.033 85.15,-21.25C84.017,-22.467 82.35,-23.075 80.15,-23.075C77.85,-23.075 75.975,-22.225 74.525,-20.525C73.075,-18.825 72.35,-16.758 72.35,-14.325L72.35,0L68.975,0Z" style="fill:rgb(35,31,32);fill-rule:nonzero;"/>
            </g>
            <g transform="matrix(1,0,0,1,707.088,1108.756)">
                <path d="M94.45,0L94.45,-25.35L97.85,-25.35L97.85,0L94.45,0ZM96.15,-31C95.467,-31 94.875,-31.25 94.375,-31.75C93.875,-32.25 93.625,-32.842 93.625,-33.525C93.625,-34.242 93.871,-34.833 94.363,-35.3C94.854,-35.767 95.45,-36 96.15,-36C96.85,-36 97.438,-35.767 97.913,-35.3C98.388,-34.833 98.625,-34.242 98.625,-33.525C98.625,-32.842 98.388,-32.25 97.913,-31.75C97.438,-31.25 96.85,-31 96.15,-31Z" style="fill:rgb(35,31,32);fill-rule:nonzero;"/>
            </g>
            <g transform="matrix(1,0,0,1,707.088,1108.756)">
                <path d="M113.55,0.775C109.833,0.775 106.8,-0.487 104.45,-3.012C102.1,-5.538 100.925,-8.792 100.925,-12.775C100.925,-16.775 102.125,-20.004 104.525,-22.462C106.925,-24.921 109.942,-26.15 113.575,-26.15C115.158,-26.15 116.608,-25.921 117.925,-25.462C119.242,-25.004 120.438,-24.283 121.513,-23.3C122.588,-22.317 123.517,-20.95 124.3,-19.2L121.35,-17.925C120.7,-19.242 120.008,-20.263 119.275,-20.988C118.542,-21.713 117.683,-22.242 116.7,-22.575C115.717,-22.908 114.625,-23.075 113.425,-23.075C110.875,-23.075 108.713,-22.142 106.938,-20.275C105.163,-18.408 104.275,-15.908 104.275,-12.775C104.275,-9.642 105.142,-7.108 106.875,-5.175C108.608,-3.242 110.783,-2.275 113.4,-2.275C114.6,-2.275 115.704,-2.458 116.713,-2.825C117.721,-3.192 118.583,-3.704 119.3,-4.363C120.017,-5.021 120.775,-6.092 121.575,-7.575L124.475,-6.15C123.508,-4.3 122.5,-2.917 121.45,-2C120.4,-1.083 119.208,-0.392 117.875,0.075C116.542,0.542 115.1,0.775 113.55,0.775Z" style="fill:rgb(35,31,32);fill-rule:nonzero;"/>
            </g>
            <g transform="matrix(1,0,0,1,707.088,1108.756)">
                <path d="M137.9,0.775C134.267,0.775 131.288,-0.475 128.963,-2.975C126.638,-5.475 125.475,-8.717 125.475,-12.7C125.475,-16.583 126.617,-19.796 128.9,-22.338C131.183,-24.879 134.117,-26.15 137.7,-26.15C141.267,-26.15 144.125,-25.058 146.275,-22.875C148.425,-20.692 149.5,-17.908 149.5,-14.525L149.5,-12.3L127.475,-12.3L127.475,-15.1L145.975,-15.1C145.892,-17.45 145.108,-19.367 143.625,-20.85C142.142,-22.333 140.167,-23.075 137.7,-23.075C135.05,-23.075 132.917,-22.133 131.3,-20.25C129.683,-18.367 128.875,-15.85 128.875,-12.7C128.875,-9.517 129.754,-6.983 131.513,-5.1C133.271,-3.217 135.458,-2.275 138.075,-2.275C139.508,-2.275 140.7,-2.5 141.65,-2.95C142.6,-3.4 143.413,-3.95 144.088,-4.6C144.763,-5.25 145.458,-6.133 146.175,-7.25L149.025,-5.85C148.258,-4.317 147.375,-3.104 146.375,-2.212C145.375,-1.321 144.208,-0.6 142.875,-0.05C141.542,0.5 139.883,0.775 137.9,0.775Z" style="fill:rgb(35,31,32);fill-rule:nonzero;"/>
            </g>
            <g transform="matrix(1,0,0,1,707.088,1108.756)">
                <path d="M152.35,0L152.35,-25.35L155.575,-25.35L155.575,-20.5L155,-20.95L155.7,-20.95C156.183,-22.5 157.133,-23.754 158.55,-24.713C159.967,-25.671 161.458,-26.15 163.025,-26.15C163.508,-26.15 163.983,-26.113 164.45,-26.038C164.917,-25.962 165.321,-25.875 165.662,-25.775C166.004,-25.675 166.175,-25.625 166.175,-25.625L166.175,-22.05C166.175,-22.05 165.942,-22.121 165.475,-22.263C165.008,-22.404 164.525,-22.513 164.025,-22.587C163.525,-22.662 163.083,-22.7 162.7,-22.7C160.767,-22.7 159.121,-21.954 157.762,-20.462C156.404,-18.971 155.725,-17.05 155.725,-14.7L155.725,0L152.35,0Z" style="fill:rgb(35,31,32);fill-rule:nonzero;"/>
            </g>
        </g>
    </g>
</svg>
